<svg xmlns="http://www.w3.org/2000/svg" version="1.1" xmlns:xlink="http://www.w3.org/1999/xlink" viewBox="0 0 24.65834432022126 9.883729329986888"><g transform="matrix(1,0,0,1,9.010086721579151,3.1931084149934446)"><g clip-path="url(#SvgjsClipPath1001)"><path d=" M -7.736444113171414 -1.013443683947528 L -0.40000000000000036 -1.013443683947528 L -0.40000000000000036 4.510956183947528 L -7.736444113171414 4.510956183947528 Z" fill="url(#gradient-b5cc37c7-f0ee-40c7-9cc6-e3de9b06449c)" transform="matrix(1,0,0,1,0,0)" fill-rule="nonzero" mask="url(#maskedMgText-ac4386c3-5b02-4a73-becc-ddea33f18d16)"></path></g><g><path d=" M 0.384 0.5504999999999999 L 0.384 1.0739999999999998 L 0.0915 1.0739999999999998 L 0.0915 0.008999999999999897 L 0.3195 0.008999999999999897 L 0.747 0.5504999999999999 L 0.747 0.008999999999999897 L 1.0395 0.008999999999999897 L 1.0395 1.0739999999999998 L 0.807 1.0739999999999998 L 0.384 0.5504999999999999 M 1.98604248046875 0.8189999999999998 L 1.98604248046875 1.0739999999999998 L 1.2270424804687499 1.0739999999999998 L 1.2270424804687499 0.008999999999999897 L 1.97254248046875 0.008999999999999897 L 1.97254248046875 0.2639999999999998 L 1.51954248046875 0.2639999999999998 L 1.51954248046875 0.4139999999999998 L 1.90654248046875 0.4139999999999998 L 1.90654248046875 0.6509999999999998 L 1.51954248046875 0.6509999999999998 L 1.51954248046875 0.8189999999999998 L 1.98604248046875 0.8189999999999998 M 2.127019775390625 1.0739999999999998 L 2.127019775390625 0.008999999999999897 L 2.419519775390625 0.008999999999999897 L 2.419519775390625 0.8189999999999998 L 2.902519775390625 0.8189999999999998 L 2.902519775390625 1.0739999999999998 L 2.127019775390625 1.0739999999999998 M 3.6540527343749996 0.3569999999999999 Q 3.6540527343749996 0.3569999999999999 3.6285527343749995 0.34199999999999986 Q 3.603052734375 0.32699999999999985 3.5610527343749996 0.3082499999999998 Q 3.5190527343749998 0.28949999999999987 3.4695527343749997 0.27449999999999986 Q 3.4200527343749996 0.25949999999999984 3.3720527343749995 0.25949999999999984 Q 3.3345527343749994 0.25949999999999984 3.3105527343749994 0.27149999999999985 Q 3.2865527343749994 0.28349999999999986 3.2865527343749994 0.31199999999999983 Q 3.2865527343749994 0.33899999999999986 3.3105527343749994 0.3554999999999998 Q 3.3345527343749994 0.3719999999999998 3.378802734375 0.38549999999999984 Q 3.4230527343749997 0.3989999999999998 3.484552734375 0.41849999999999987 Q 3.5835527343749995 0.4484999999999998 3.6555527343749996 0.4874999999999998 Q 3.7275527343749997 0.5264999999999999 3.766552734375 0.5872499999999998 Q 3.8055527343749995 0.6479999999999999 3.8055527343749995 0.7484999999999998 Q 3.8055527343749995 0.8444999999999998 3.7710527343749995 0.9097499999999998 Q 3.7365527343749996 0.9749999999999999 3.6780527343749996 1.0139999999999998 Q 3.6195527343749996 1.053 3.5475527343749995 1.07025 Q 3.4755527343749995 1.0875 3.4005527343749997 1.0875 Q 3.3240527343749995 1.0875 3.2408027343749994 1.0717499999999998 Q 3.157552734375 1.0559999999999998 3.0795527343749995 1.0282499999999999 Q 3.0015527343749997 1.0005 2.9370527343749995 0.9629999999999999 L 3.063052734375 0.7064999999999999 Q 3.063052734375 0.7064999999999999 3.0930527343749996 0.7244999999999998 Q 3.1230527343749994 0.7424999999999998 3.1725527343749995 0.7649999999999999 Q 3.2220527343749996 0.7874999999999999 3.2828027343749997 0.8054999999999999 Q 3.343552734375 0.8234999999999999 3.4050527343749994 0.8234999999999999 Q 3.4530527343749995 0.8234999999999999 3.4718027343749998 0.8107499999999999 Q 3.4905527343749996 0.7979999999999998 3.4905527343749996 0.7769999999999999 Q 3.4905527343749996 0.7454999999999998 3.4575527343749997 0.7282499999999998 Q 3.4245527343749997 0.7109999999999999 3.3713027343749995 0.6952499999999998 Q 3.3180527343749997 0.6794999999999998 3.2535527343749995 0.6584999999999999 Q 3.1605527343749995 0.6269999999999998 3.1005527343749995 0.5872499999999998 Q 3.040552734375 0.5474999999999999 3.0120527343749997 0.4927499999999998 Q 2.9835527343749995 0.43799999999999983 2.9835527343749995 0.3599999999999999 Q 2.9835527343749995 0.24149999999999983 3.039052734375 0.1619999999999998 Q 3.0945527343749997 0.0824999999999998 3.1853027343749996 0.04124999999999979 Q 3.2760527343749994 -2.220446049250313e-16 3.3810527343749994 -2.220446049250313e-16 Q 3.4590527343749997 -2.220446049250313e-16 3.531802734375 0.018749999999999822 Q 3.604552734375 0.03749999999999987 3.6683027343749997 0.06449999999999978 Q 3.7320527343749994 0.0914999999999998 3.7800527343749994 0.11549999999999983 L 3.6540527343749996 0.3569999999999999 M 4.419059326171875 1.0829999999999997 Q 4.297559326171875 1.0829999999999997 4.198559326171875 1.0372499999999998 Q 4.099559326171875 0.9914999999999998 4.0283093261718745 0.9142499999999998 Q 3.957059326171875 0.8369999999999999 3.918809326171875 0.7402499999999999 Q 3.8805593261718747 0.6434999999999998 3.8805593261718747 0.5399999999999998 Q 3.8805593261718747 0.4334999999999999 3.921059326171875 0.3374999999999998 Q 3.9615593261718747 0.24149999999999983 4.034309326171875 0.16574999999999984 Q 4.107059326171875 0.08999999999999986 4.206809326171875 0.046499999999999764 Q 4.306559326171874 0.0029999999999998916 4.4250593261718745 0.0029999999999998916 Q 4.546559326171875 0.0029999999999998916 4.645559326171875 0.04874999999999985 Q 4.744559326171875 0.0944999999999998 4.815059326171875 0.17249999999999988 Q 4.885559326171875 0.25049999999999983 4.923809326171875 0.34724999999999984 Q 4.962059326171875 0.44399999999999984 4.962059326171875 0.5459999999999998 Q 4.962059326171875 0.6509999999999998 4.922309326171875 0.7469999999999999 Q 4.882559326171875 0.8429999999999999 4.809809326171875 0.9187499999999998 Q 4.737059326171875 0.9944999999999998 4.6380593261718746 1.0387499999999998 Q 4.539059326171875 1.0829999999999997 4.419059326171875 1.0829999999999997 M 4.177559326171875 0.5429999999999998 Q 4.177559326171875 0.5969999999999998 4.1925593261718745 0.6472499999999999 Q 4.207559326171875 0.6974999999999998 4.2375593261718745 0.7372499999999998 Q 4.267559326171875 0.7769999999999999 4.313309326171875 0.8002499999999999 Q 4.359059326171875 0.8234999999999999 4.422059326171874 0.8234999999999999 Q 4.485059326171875 0.8234999999999999 4.531559326171875 0.7994999999999999 Q 4.578059326171875 0.7754999999999999 4.607309326171875 0.7342499999999998 Q 4.6365593261718745 0.6929999999999998 4.650809326171875 0.6427499999999998 Q 4.665059326171875 0.5924999999999998 4.665059326171875 0.5399999999999998 Q 4.665059326171875 0.4859999999999999 4.650059326171875 0.4364999999999998 Q 4.635059326171874 0.3869999999999998 4.605059326171875 0.34724999999999984 Q 4.575059326171875 0.3074999999999998 4.528559326171875 0.2849999999999998 Q 4.482059326171875 0.26249999999999984 4.420559326171875 0.26249999999999984 Q 4.357559326171875 0.26249999999999984 4.311809326171875 0.28649999999999987 Q 4.266059326171875 0.3104999999999998 4.236059326171874 0.35024999999999984 Q 4.206059326171875 0.3899999999999998 4.1918093261718745 0.4402499999999998 Q 4.177559326171875 0.4904999999999998 4.177559326171875 0.5429999999999998 M 5.383581298828125 0.5504999999999999 L 5.383581298828125 1.0739999999999998 L 5.091081298828125 1.0739999999999998 L 5.091081298828125 0.008999999999999897 L 5.319081298828125 0.008999999999999897 L 5.746581298828125 0.5504999999999999 L 5.746581298828125 0.008999999999999897 L 6.039081298828125 0.008999999999999897 L 6.039081298828125 1.0739999999999998 L 5.806581298828125 1.0739999999999998 L 5.383581298828125 0.5504999999999999 M 6.769543212890626 0.008999999999999897 L 7.096543212890626 0.008999999999999897 L 7.435543212890625 1.0739999999999998 L 7.138543212890625 1.0739999999999998 L 7.074043212890626 0.8654999999999998 L 6.790543212890626 0.8654999999999998 L 6.727543212890625 1.0739999999999998 L 6.429043212890625 1.0739999999999998 L 6.769543212890626 0.008999999999999897 M 7.027543212890626 0.6704999999999999 L 6.933043212890626 0.2954999999999999 L 6.834043212890625 0.6704999999999999 L 7.027543212890626 0.6704999999999999 M 7.528531494140625 1.0739999999999998 L 7.528531494140625 0.008999999999999897 L 7.821031494140626 0.008999999999999897 L 7.821031494140626 0.8189999999999998 L 8.304031494140625 0.8189999999999998 L 8.304031494140625 1.0739999999999998 L 7.528531494140625 1.0739999999999998 M 8.493109130859375 0.008999999999999897 L 8.701609130859374 0.7364999999999998 L 8.907109130859375 0.008999999999999897 L 9.214609130859374 0.008999999999999897 L 8.847109130859375 1.0739999999999998 L 8.556109130859374 1.0739999999999998 L 8.184109130859374 0.008999999999999897 L 8.493109130859375 0.008999999999999897 M 9.459129638671875 0.008999999999999897 L 9.786129638671875 0.008999999999999897 L 10.125129638671876 1.0739999999999998 L 9.828129638671875 1.0739999999999998 L 9.763629638671874 0.8654999999999998 L 9.480129638671874 0.8654999999999998 L 9.417129638671875 1.0739999999999998 L 9.118629638671875 1.0739999999999998 L 9.459129638671875 0.008999999999999897 M 9.717129638671874 0.6704999999999999 L 9.622629638671874 0.2954999999999999 L 9.523629638671874 0.6704999999999999 L 9.717129638671874 0.6704999999999999 M 10.218117919921875 1.0739999999999998 L 10.218117919921875 0.008999999999999897 L 10.707117919921876 0.008999999999999897 Q 10.785117919921875 0.008999999999999897 10.851117919921876 0.04049999999999976 Q 10.917117919921875 0.07199999999999984 10.965117919921875 0.12524999999999986 Q 11.013117919921875 0.17849999999999977 11.039367919921876 0.24449999999999983 Q 11.065617919921875 0.3104999999999998 11.065617919921875 0.3779999999999998 Q 11.065617919921875 0.4394999999999998 11.047617919921874 0.49649999999999983 Q 11.029617919921876 0.5534999999999999 10.995117919921874 0.6007499999999999 Q 10.960617919921875 0.6479999999999999 10.912617919921875 0.6824999999999999 L 11.137617919921876 1.0739999999999998 L 10.816617919921875 1.0739999999999998 L 10.629117919921875 0.7469999999999999 L 10.510617919921875 0.7469999999999999 L 10.510617919921875 1.0739999999999998 L 10.218117919921875 1.0739999999999998 M 10.510617919921875 0.4919999999999999 L 10.695117919921875 0.4919999999999999 Q 10.713117919921874 0.4919999999999999 10.729617919921875 0.4784999999999998 Q 10.746117919921875 0.46499999999999986 10.757367919921876 0.4394999999999998 Q 10.768617919921875 0.4139999999999998 10.768617919921875 0.3779999999999998 Q 10.768617919921875 0.3404999999999998 10.755867919921876 0.31574999999999986 Q 10.743117919921875 0.2909999999999998 10.724367919921875 0.27749999999999986 Q 10.705617919921876 0.2639999999999998 10.687617919921875 0.2639999999999998 L 10.510617919921875 0.2639999999999998 L 10.510617919921875 0.4919999999999999 M 11.481099609375 0.008999999999999897 L 11.808099609375 0.008999999999999897 L 12.147099609375001 1.0739999999999998 L 11.850099609375 1.0739999999999998 L 11.785599609375 0.8654999999999998 L 11.502099609375 0.8654999999999998 L 11.439099609375 1.0739999999999998 L 11.140599609375 1.0739999999999998 L 11.481099609375 0.008999999999999897 M 11.739099609375 0.6704999999999999 L 11.644599609375 0.2954999999999999 L 11.545599609375 0.6704999999999999 L 11.739099609375 0.6704999999999999 M 12.240087890625 1.0739999999999998 L 12.240087890625 0.008999999999999897 L 12.649587890625 0.008999999999999897 Q 12.826587890625001 0.008999999999999897 12.945837890625 0.08024999999999982 Q 13.065087890625 0.15149999999999986 13.125837890625 0.2722499999999999 Q 13.186587890625 0.3929999999999998 13.186587890625 0.5399999999999998 Q 13.186587890625 0.7019999999999998 13.119837890625 0.8219999999999998 Q 13.053087890625001 0.9419999999999998 12.932337890625 1.0079999999999998 Q 12.811587890625 1.0739999999999998 12.649587890625 1.0739999999999998 L 12.240087890625 1.0739999999999998 M 12.889587890625 0.5399999999999998 Q 12.889587890625 0.4574999999999998 12.861087890625 0.3952499999999999 Q 12.832587890625 0.33299999999999985 12.778587890625001 0.2984999999999999 Q 12.724587890625001 0.2639999999999998 12.649587890625 0.2639999999999998 L 12.532587890625 0.2639999999999998 L 12.532587890625 0.8189999999999998 L 12.649587890625 0.8189999999999998 Q 12.726087890625001 0.8189999999999998 12.779337890625001 0.7829999999999999 Q 12.832587890625 0.7469999999999999 12.861087890625 0.6832499999999999 Q 12.889587890625 0.6194999999999998 12.889587890625 0.5399999999999998 M 13.798593017578126 1.0829999999999997 Q 13.677093017578125 1.0829999999999997 13.578093017578126 1.0372499999999998 Q 13.479093017578126 0.9914999999999998 13.407843017578125 0.9142499999999998 Q 13.336593017578126 0.8369999999999999 13.298343017578125 0.7402499999999999 Q 13.260093017578125 0.6434999999999998 13.260093017578125 0.5399999999999998 Q 13.260093017578125 0.4334999999999999 13.300593017578125 0.3374999999999998 Q 13.341093017578126 0.24149999999999983 13.413843017578126 0.16574999999999984 Q 13.486593017578125 0.08999999999999986 13.586343017578125 0.046499999999999764 Q 13.686093017578125 0.0029999999999998916 13.804593017578126 0.0029999999999998916 Q 13.926093017578125 0.0029999999999998916 14.025093017578126 0.04874999999999985 Q 14.124093017578126 0.0944999999999998 14.194593017578125 0.17249999999999988 Q 14.265093017578126 0.25049999999999983 14.303343017578126 0.34724999999999984 Q 14.341593017578125 0.44399999999999984 14.341593017578125 0.5459999999999998 Q 14.341593017578125 0.6509999999999998 14.301843017578125 0.7469999999999999 Q 14.262093017578126 0.8429999999999999 14.189343017578125 0.9187499999999998 Q 14.116593017578126 0.9944999999999998 14.017593017578125 1.0387499999999998 Q 13.918593017578125 1.0829999999999997 13.798593017578126 1.0829999999999997 M 13.557093017578126 0.5429999999999998 Q 13.557093017578126 0.5969999999999998 13.572093017578126 0.6472499999999999 Q 13.587093017578125 0.6974999999999998 13.617093017578126 0.7372499999999998 Q 13.647093017578126 0.7769999999999999 13.692843017578125 0.8002499999999999 Q 13.738593017578125 0.8234999999999999 13.801593017578126 0.8234999999999999 Q 13.864593017578125 0.8234999999999999 13.911093017578125 0.7994999999999999 Q 13.957593017578125 0.7754999999999999 13.986843017578126 0.7342499999999998 Q 14.016093017578125 0.6929999999999998 14.030343017578126 0.6427499999999998 Q 14.044593017578126 0.5924999999999998 14.044593017578126 0.5399999999999998 Q 14.044593017578126 0.4859999999999999 14.029593017578126 0.4364999999999998 Q 14.014593017578125 0.3869999999999998 13.984593017578126 0.34724999999999984 Q 13.954593017578127 0.3074999999999998 13.908093017578125 0.2849999999999998 Q 13.861593017578127 0.26249999999999984 13.800093017578126 0.26249999999999984 Q 13.737093017578125 0.26249999999999984 13.691343017578125 0.28649999999999987 Q 13.645593017578125 0.3104999999999998 13.615593017578126 0.35024999999999984 Q 13.585593017578125 0.3899999999999998 13.571343017578126 0.4402499999999998 Q 13.557093017578126 0.4904999999999998 13.557093017578126 0.5429999999999998 M 0.3375 1.5449999999999995 L 0.6645 1.5449999999999995 L 1.0035 2.6099999999999994 L 0.7065 2.6099999999999994 L 0.642 2.4014999999999995 L 0.3585 2.4014999999999995 L 0.2955 2.6099999999999994 L -0.003 2.6099999999999994 L 0.3375 1.5449999999999995 M 0.5955 2.2064999999999992 L 0.501 1.8314999999999995 L 0.402 2.2064999999999992 L 0.5955 2.2064999999999992 M 1.513500732421875 2.6174999999999993 Q 1.4100007324218748 2.6174999999999993 1.3162507324218748 2.580749999999999 Q 1.2225007324218748 2.5439999999999996 1.150500732421875 2.4727499999999996 Q 1.078500732421875 2.4014999999999995 1.037250732421875 2.3002499999999992 Q 0.9960007324218749 2.1989999999999994 0.9960007324218749 2.0684999999999993 Q 0.9960007324218749 1.9559999999999995 1.038000732421875 1.8599999999999994 Q 1.080000732421875 1.7639999999999993 1.154250732421875 1.6912499999999993 Q 1.228500732421875 1.6184999999999994 1.3275007324218748 1.5779999999999994 Q 1.426500732421875 1.5374999999999994 1.542000732421875 1.5374999999999994 Q 1.686000732421875 1.5374999999999994 1.803000732421875 1.5997499999999993 Q 1.920000732421875 1.6619999999999995 1.977000732421875 1.7699999999999996 L 1.759500732421875 1.9364999999999994 Q 1.728000732421875 1.8734999999999995 1.665000732421875 1.8352499999999994 Q 1.602000732421875 1.7969999999999993 1.531500732421875 1.7969999999999993 Q 1.4790007324218748 1.7969999999999993 1.435500732421875 1.8179999999999994 Q 1.392000732421875 1.8389999999999995 1.359750732421875 1.8764999999999994 Q 1.3275007324218748 1.9139999999999993 1.310250732421875 1.9657499999999994 Q 1.2930007324218749 2.017499999999999 1.2930007324218749 2.0789999999999993 Q 1.2930007324218749 2.1419999999999995 1.311000732421875 2.1929999999999996 Q 1.3290007324218749 2.2439999999999993 1.361250732421875 2.2807499999999994 Q 1.3935007324218749 2.3174999999999994 1.438500732421875 2.3377499999999993 Q 1.483500732421875 2.3579999999999997 1.5390007324218749 2.3579999999999997 Q 1.6095007324218749 2.3579999999999997 1.674000732421875 2.322749999999999 Q 1.7385007324218749 2.2874999999999996 1.791000732421875 2.2229999999999994 L 1.791000732421875 2.5079999999999996 Q 1.671000732421875 2.6174999999999993 1.513500732421875 2.6174999999999993 M 1.776000732421875 2.2529999999999992 L 1.579500732421875 2.2529999999999992 L 1.579500732421875 2.0429999999999993 L 2.017500732421875 2.0429999999999993 L 2.017500732421875 2.6099999999999994 L 1.776000732421875 2.6099999999999994 L 1.776000732421875 2.2529999999999992 M 2.631021240234375 2.6189999999999993 Q 2.5035212402343747 2.6189999999999993 2.412021240234375 2.5769999999999995 Q 2.320521240234375 2.5349999999999993 2.262771240234375 2.4614999999999996 Q 2.205021240234375 2.3879999999999995 2.178021240234375 2.2927499999999994 Q 2.1510212402343747 2.1974999999999993 2.1510212402343747 2.0924999999999994 L 2.1510212402343747 1.5449999999999995 L 2.443521240234375 1.5449999999999995 L 2.443521240234375 2.0924999999999994 Q 2.443521240234375 2.1449999999999996 2.454021240234375 2.1929999999999996 Q 2.464521240234375 2.2409999999999997 2.487021240234375 2.2784999999999993 Q 2.509521240234375 2.3159999999999994 2.544771240234375 2.3377499999999993 Q 2.580021240234375 2.3594999999999993 2.631021240234375 2.3594999999999993 Q 2.683521240234375 2.3594999999999993 2.719521240234375 2.3377499999999993 Q 2.755521240234375 2.3159999999999994 2.777271240234375 2.2777499999999993 Q 2.799021240234375 2.2394999999999996 2.8095212402343748 2.1914999999999996 Q 2.820021240234375 2.1434999999999995 2.820021240234375 2.0924999999999994 L 2.820021240234375 1.5449999999999995 L 3.1125212402343747 1.5449999999999995 L 3.1125212402343747 2.0924999999999994 Q 3.1125212402343747 2.2034999999999996 3.083271240234375 2.299499999999999 Q 3.054021240234375 2.3954999999999993 2.9955212402343747 2.4674999999999994 Q 2.937021240234375 2.5394999999999994 2.846271240234375 2.5792499999999996 Q 2.755521240234375 2.6189999999999993 2.631021240234375 2.6189999999999993 M 3.2849926757812495 2.6099999999999994 L 3.2849926757812495 1.5449999999999995 L 3.5774926757812495 1.5449999999999995 L 3.5774926757812495 2.6099999999999994 L 3.2849926757812495 2.6099999999999994 M 3.7650175781249997 2.6099999999999994 L 3.7650175781249997 1.5449999999999995 L 4.057517578125 1.5449999999999995 L 4.057517578125 2.3549999999999995 L 4.540517578125 2.3549999999999995 L 4.540517578125 2.6099999999999994 L 3.7650175781249997 2.6099999999999994 M 4.893050537109375 1.5449999999999995 L 5.220050537109375 1.5449999999999995 L 5.559050537109375 2.6099999999999994 L 5.262050537109375 2.6099999999999994 L 5.197550537109375 2.4014999999999995 L 4.914050537109375 2.4014999999999995 L 4.851050537109375 2.6099999999999994 L 4.552550537109375 2.6099999999999994 L 4.893050537109375 1.5449999999999995 M 5.151050537109375 2.2064999999999992 L 5.056550537109375 1.8314999999999995 L 4.957550537109375 2.2064999999999992 L 5.151050537109375 2.2064999999999992 M 5.652038818359375 2.6099999999999994 L 5.652038818359375 1.5449999999999995 L 6.141038818359375 1.5449999999999995 Q 6.219038818359375 1.5449999999999995 6.285038818359375 1.5764999999999993 Q 6.351038818359375 1.6079999999999994 6.399038818359375 1.6612499999999994 Q 6.447038818359375 1.7144999999999992 6.473288818359375 1.7804999999999995 Q 6.499538818359375 1.8464999999999994 6.499538818359375 1.9139999999999993 Q 6.499538818359375 1.9754999999999994 6.481538818359375 2.0324999999999993 Q 6.463538818359375 2.0894999999999992 6.429038818359375 2.1367499999999993 Q 6.394538818359375 2.1839999999999993 6.346538818359376 2.2184999999999993 L 6.571538818359375 2.6099999999999994 L 6.2505388183593755 2.6099999999999994 L 6.0630388183593755 2.2829999999999995 L 5.9445388183593755 2.2829999999999995 L 5.9445388183593755 2.6099999999999994 L 5.652038818359375 2.6099999999999994 M 5.9445388183593755 2.0279999999999996 L 6.129038818359375 2.0279999999999996 Q 6.147038818359375 2.0279999999999996 6.163538818359375 2.0144999999999995 Q 6.1800388183593755 2.0009999999999994 6.191288818359375 1.9754999999999994 Q 6.2025388183593755 1.9499999999999993 6.2025388183593755 1.9139999999999993 Q 6.2025388183593755 1.8764999999999994 6.189788818359375 1.8517499999999996 Q 6.177038818359375 1.8269999999999995 6.158288818359376 1.8134999999999994 Q 6.139538818359375 1.7999999999999994 6.121538818359375 1.7999999999999994 L 5.9445388183593755 1.7999999999999994 L 5.9445388183593755 2.0279999999999996" fill="#1c3423" fill-rule="nonzero"></path></g><g><path d=" M 0.06975 2.9650124999999994 L 0.24375 3.2515124999999996 L 0.41925 2.9650124999999994 L 0.47625 2.9650124999999994 L 0.27 3.2995124999999996 L 0.27 3.4975124999999996 L 0.2175 3.4975124999999996 L 0.2175 3.2980124999999996 L 0.012 2.9650124999999994 L 0.06975 2.9650124999999994 M 0.7353779296874999 3.5012624999999997 Q 0.6791279296874999 3.5012624999999997 0.6333779296875 3.4787624999999998 Q 0.5876279296875 3.4562625 0.5546279296875 3.4176374999999997 Q 0.5216279296874999 3.3790124999999995 0.5036279296874999 3.3306374999999995 Q 0.4856279296874999 3.2822624999999994 0.4856279296874999 3.2312624999999997 Q 0.4856279296874999 3.1780124999999995 0.5043779296875 3.1296374999999994 Q 0.5231279296875 3.0812624999999993 0.5572529296875 3.0433874999999997 Q 0.5913779296874999 3.0055124999999996 0.6371279296874999 2.9833874999999996 Q 0.6828779296874999 2.9612624999999997 0.7361279296875 2.9612624999999997 Q 0.7923779296875 2.9612624999999997 0.8381279296874999 2.9845124999999997 Q 0.8838779296874999 3.0077624999999997 0.9165029296875 3.0467625 Q 0.9491279296874999 3.0857624999999995 0.9671279296874999 3.1337624999999996 Q 0.9851279296875 3.1817624999999996 0.9851279296875 3.2320124999999997 Q 0.9851279296875 3.2852624999999995 0.9663779296874999 3.3336374999999996 Q 0.9476279296874999 3.3820124999999996 0.9138779296874999 3.4198874999999997 Q 0.8801279296875 3.4577624999999994 0.8343779296875 3.4795125 Q 0.7886279296875 3.5012624999999997 0.7353779296874999 3.5012624999999997 M 0.5381279296874999 3.2312624999999997 Q 0.5381279296874999 3.2747624999999996 0.5523779296875 3.3148874999999998 Q 0.5666279296875 3.3550124999999995 0.5928779296875 3.3861374999999994 Q 0.6191279296875 3.4172624999999996 0.6555029296874999 3.4356374999999995 Q 0.6918779296875 3.4540124999999997 0.7353779296874999 3.4540124999999997 Q 0.7811279296875 3.4540124999999997 0.8175029296874999 3.4348874999999994 Q 0.8538779296874999 3.4157624999999996 0.8797529296875 3.3838874999999997 Q 0.9056279296874999 3.3520124999999994 0.9191279296874999 3.3122624999999997 Q 0.9326279296875 3.2725124999999995 0.9326279296875 3.2312624999999997 Q 0.9326279296875 3.1877624999999994 0.9183779296874999 3.1480124999999997 Q 0.9041279296875 3.1082624999999995 0.8775029296874999 3.0767624999999996 Q 0.8508779296875 3.0452624999999998 0.8148779296875 3.0272624999999995 Q 0.7788779296874999 3.0092624999999997 0.7353779296874999 3.0092624999999997 Q 0.6903779296874999 3.0092624999999997 0.6540029296875 3.0280124999999996 Q 0.6176279296874999 3.0467625 0.5917529296874999 3.0786374999999997 Q 0.5658779296875 3.1105124999999996 0.5520029296875 3.1502624999999997 Q 0.5381279296874999 3.1900124999999995 0.5381279296874999 3.2312624999999997 M 1.3019853515624997 3.5012624999999997 Q 1.2389853515624996 3.5012624999999997 1.1954853515624997 3.4787624999999998 Q 1.1519853515624996 3.4562625 1.1264853515624997 3.4183874999999997 Q 1.1009853515624997 3.3805124999999996 1.0893603515624997 3.3325124999999995 Q 1.0777353515624997 3.2845124999999995 1.0777353515624997 3.2335125 L 1.0777353515624997 2.9650124999999994 L 1.1294853515624996 2.9650124999999994 L 1.1294853515624996 3.2335125 Q 1.1294853515624996 3.2747624999999996 1.1381103515624997 3.3145124999999998 Q 1.1467353515624996 3.3542624999999995 1.1662353515624997 3.3857625 Q 1.1857353515624998 3.4172624999999996 1.2187353515624997 3.4356374999999995 Q 1.2517353515624996 3.4540124999999997 1.3012353515624997 3.4540124999999997 Q 1.3522353515624996 3.4540124999999997 1.3856103515624998 3.4348874999999994 Q 1.4189853515624997 3.4157624999999996 1.4381103515624996 3.3842624999999997 Q 1.4572353515624996 3.3527624999999994 1.4654853515624997 3.3133874999999997 Q 1.4737353515624996 3.2740124999999995 1.4737353515624996 3.2335125 L 1.4737353515624996 2.9650124999999994 L 1.5262353515624998 2.9650124999999994 L 1.5262353515624998 3.2335125 Q 1.5262353515624998 3.2867624999999996 1.5142353515624998 3.3355124999999997 Q 1.5022353515624998 3.3842624999999997 1.4756103515624996 3.4210125 Q 1.4489853515624995 3.4577624999999994 1.4062353515624997 3.4795125 Q 1.3634853515624996 3.5012624999999997 1.3019853515624997 3.5012624999999997 M 1.6526140136718748 3.4975124999999996 L 1.6526140136718748 2.9650124999999994 L 1.8776140136718746 2.9650124999999994 Q 1.9121140136718746 2.9650124999999994 1.9406140136718748 2.9792624999999995 Q 1.9691140136718748 2.9935124999999996 1.9904890136718747 3.0178874999999996 Q 2.011864013671875 3.0422624999999996 2.023489013671875 3.0718874999999994 Q 2.035114013671875 3.1015124999999997 2.035114013671875 3.1322624999999995 Q 2.035114013671875 3.1705124999999996 2.0204890136718747 3.2042624999999996 Q 2.0058640136718746 3.2380124999999995 1.9792390136718747 3.2612624999999995 Q 1.9526140136718748 3.2845124999999995 1.9166140136718748 3.2920124999999993 L 2.047114013671875 3.4975124999999996 L 1.9878640136718748 3.4975124999999996 L 1.8626140136718747 3.3010124999999997 L 1.7051140136718748 3.3010124999999997 L 1.7051140136718748 3.4975124999999996 L 1.6526140136718748 3.4975124999999996 M 1.7051140136718748 3.2545124999999997 L 1.8791140136718747 3.2545124999999997 Q 1.9106140136718746 3.2545124999999997 1.9338640136718748 3.2372624999999995 Q 1.9571140136718748 3.2200124999999997 1.9698640136718746 3.1918874999999995 Q 1.9826140136718746 3.1637625 1.9826140136718746 3.1322624999999995 Q 1.9826140136718746 3.1000124999999996 1.9679890136718747 3.0726374999999995 Q 1.9533640136718746 3.0452624999999998 1.9289890136718748 3.0283874999999996 Q 1.9046140136718748 3.0115124999999994 1.8746140136718747 3.0115124999999994 L 1.7051140136718748 3.0115124999999994 L 1.7051140136718748 3.2545124999999997 M 2.477624633789062 2.9650124999999994 L 2.5218746337890625 2.9650124999999994 L 2.7431246337890625 3.4975124999999996 L 2.687624633789062 3.4975124999999996 L 2.618624633789062 3.3310124999999995 L 2.3793746337890624 3.3310124999999995 L 2.311124633789062 3.4975124999999996 L 2.254874633789062 3.4975124999999996 L 2.477624633789062 2.9650124999999994 M 2.606624633789062 3.2897624999999997 L 2.499374633789062 3.0265124999999995 L 2.3906246337890624 3.2897624999999997 L 2.606624633789062 3.2897624999999997 M 2.820768676757812 3.4975124999999996 L 2.820768676757812 2.9650124999999994 L 2.8732686767578124 2.9650124999999994 L 2.8732686767578124 3.4510124999999996 L 3.1807686767578125 3.4510124999999996 L 3.1807686767578125 3.4975124999999996 L 2.820768676757812 3.4975124999999996 M 3.259149536132812 3.4975124999999996 L 3.259149536132812 2.9650124999999994 L 3.3116495361328124 2.9650124999999994 L 3.3116495361328124 3.4510124999999996 L 3.6191495361328125 3.4510124999999996 L 3.6191495361328125 3.4975124999999996 L 3.259149536132812 3.4975124999999996 M 3.61579833984375 2.9650124999999994 L 3.78979833984375 3.2515124999999996 L 3.96529833984375 2.9650124999999994 L 4.02229833984375 2.9650124999999994 L 3.81604833984375 3.2995124999999996 L 3.81604833984375 3.4975124999999996 L 3.7635483398437497 3.4975124999999996 L 3.7635483398437497 3.2980124999999996 L 3.55804833984375 2.9650124999999994 L 3.61579833984375 2.9650124999999994 M 4.267544677734374 3.4975124999999996 L 4.267544677734374 2.9650124999999994 L 4.320044677734375 2.9650124999999994 L 4.320044677734375 3.4975124999999996 L 4.267544677734374 3.4975124999999996 M 4.507159057617187 3.0617624999999995 L 4.507159057617187 3.4975124999999996 L 4.454659057617187 3.4975124999999996 L 4.454659057617187 2.9650124999999994 L 4.498159057617187 2.9650124999999994 L 4.847659057617187 3.4090125 L 4.847659057617187 2.9657624999999994 L 4.900159057617187 2.9657624999999994 L 4.900159057617187 3.4975124999999996 L 4.851409057617187 3.4975124999999996 L 4.507159057617187 3.0617624999999995 M 5.227142211914062 3.4975124999999996 L 5.227142211914062 2.9650124999999994 L 5.407892211914062 2.9650124999999994 Q 5.492642211914062 2.9650124999999994 5.549267211914062 3.0006374999999994 Q 5.605892211914062 3.0362624999999994 5.634392211914062 3.0966374999999995 Q 5.662892211914063 3.1570124999999996 5.662892211914063 3.2305124999999997 Q 5.662892211914063 3.3115124999999996 5.631767211914062 3.3715124999999997 Q 5.600642211914062 3.4315124999999997 5.5432672119140625 3.4645124999999997 Q 5.485892211914062 3.4975124999999996 5.407892211914062 3.4975124999999996 L 5.227142211914062 3.4975124999999996 M 5.610392211914062 3.2305124999999997 Q 5.610392211914062 3.1667624999999995 5.586767211914062 3.1172624999999994 Q 5.563142211914062 3.0677624999999997 5.518142211914062 3.0396374999999995 Q 5.4731422119140625 3.0115124999999994 5.407892211914062 3.0115124999999994 L 5.279642211914062 3.0115124999999994 L 5.279642211914062 3.4510124999999996 L 5.407892211914062 3.4510124999999996 Q 5.4738922119140625 3.4510124999999996 5.518892211914062 3.4217624999999994 Q 5.563892211914062 3.3925124999999996 5.587142211914062 3.3426374999999995 Q 5.610392211914062 3.2927624999999994 5.610392211914062 3.2305124999999997 M 5.764537353515625 3.4975124999999996 L 5.764537353515625 2.9650124999999994 L 5.817037353515625 2.9650124999999994 L 5.817037353515625 3.4975124999999996 L 5.764537353515625 3.4975124999999996 M 6.165401733398437 3.5012624999999997 Q 6.112151733398437 3.5012624999999997 6.066401733398437 3.4783874999999997 Q 6.020651733398437 3.4555124999999998 5.986901733398438 3.4165124999999996 Q 5.953151733398437 3.3775124999999995 5.934776733398437 3.3295124999999994 Q 5.916401733398438 3.2815124999999994 5.916401733398438 3.2305124999999997 Q 5.916401733398438 3.1765124999999994 5.934776733398437 3.1281374999999993 Q 5.953151733398437 3.0797624999999997 5.9861517333984375 3.0422624999999996 Q 6.019151733398437 3.0047624999999996 6.064151733398437 2.9830124999999996 Q 6.109151733398437 2.9612624999999997 6.162401733398437 2.9612624999999997 Q 6.241151733398437 2.9612624999999997 6.2906517333984375 2.9935124999999996 Q 6.340151733398438 3.0257624999999995 6.365651733398437 3.0775124999999997 L 6.325151733398437 3.1045124999999993 Q 6.299651733398437 3.0550124999999997 6.256901733398437 3.0317624999999997 Q 6.214151733398437 3.0085124999999997 6.161651733398437 3.0085124999999997 Q 6.117401733398437 3.0085124999999997 6.081776733398438 3.0272624999999995 Q 6.046151733398437 3.0460125 6.020651733398437 3.0775124999999997 Q 5.995151733398437 3.1090124999999995 5.982026733398437 3.1487624999999997 Q 5.968901733398437 3.1885124999999994 5.968901733398437 3.2312624999999997 Q 5.968901733398437 3.2762624999999996 5.9839017333984375 3.3163874999999994 Q 5.998901733398437 3.3565124999999996 6.026651733398437 3.3876374999999994 Q 6.0544017333984375 3.4187624999999997 6.090776733398437 3.4363874999999995 Q 6.1271517333984375 3.4540124999999997 6.169151733398437 3.4540124999999997 Q 6.217901733398437 3.4540124999999997 6.261401733398437 3.4296374999999997 Q 6.304901733398437 3.4052624999999996 6.344651733398437 3.3542624999999995 L 6.344651733398437 3.4097624999999994 Q 6.268901733398438 3.5012624999999997 6.165401733398437 3.5012624999999997 M 6.3364017333984375 3.2762624999999996 L 6.217901733398437 3.2762624999999996 L 6.217901733398437 3.2357624999999994 L 6.380651733398437 3.2357624999999994 L 6.380651733398437 3.4975124999999996 L 6.3364017333984375 3.4975124999999996 L 6.3364017333984375 3.2762624999999996 M 6.489779296875 3.4975124999999996 L 6.489779296875 2.9650124999999994 L 6.542279296875 2.9650124999999994 L 6.542279296875 3.4975124999999996 L 6.489779296875 3.4975124999999996 M 7.054893676757812 3.0115124999999994 L 6.865143676757812 3.0115124999999994 L 6.865143676757812 3.4975124999999996 L 6.812643676757812 3.4975124999999996 L 6.812643676757812 3.0115124999999994 L 6.622893676757812 3.0115124999999994 L 6.622893676757812 2.9650124999999994 L 7.054893676757812 2.9650124999999994 L 7.054893676757812 3.0115124999999994 M 7.249512817382812 2.9650124999999994 L 7.293762817382812 2.9650124999999994 L 7.515012817382813 3.4975124999999996 L 7.459512817382812 3.4975124999999996 L 7.390512817382812 3.3310124999999995 L 7.151262817382812 3.3310124999999995 L 7.083012817382812 3.4975124999999996 L 7.026762817382813 3.4975124999999996 L 7.249512817382812 2.9650124999999994 M 7.378512817382813 3.2897624999999997 L 7.271262817382812 3.0265124999999995 L 7.1625128173828125 3.2897624999999997 L 7.378512817382813 3.2897624999999997 M 7.592656860351562 3.4975124999999996 L 7.592656860351562 2.9650124999999994 L 7.6451568603515625 2.9650124999999994 L 7.6451568603515625 3.4510124999999996 L 7.952656860351563 3.4510124999999996 L 7.952656860351563 3.4975124999999996 L 7.592656860351562 3.4975124999999996 M 8.201672607421875 3.4975124999999996 L 8.201672607421875 2.9650124999999994 L 8.254172607421873 2.9650124999999994 L 8.254172607421873 3.4975124999999996 L 8.201672607421875 3.4975124999999996 M 8.441286987304686 3.0617624999999995 L 8.441286987304686 3.4975124999999996 L 8.388786987304687 3.4975124999999996 L 8.388786987304687 2.9650124999999994 L 8.432286987304687 2.9650124999999994 L 8.781786987304686 3.4090125 L 8.781786987304686 2.9657624999999994 L 8.834286987304687 2.9657624999999994 L 8.834286987304687 3.4975124999999996 L 8.785536987304686 3.4975124999999996 L 8.441286987304686 3.0617624999999995 M 9.021391479492186 3.0617624999999995 L 9.021391479492186 3.4975124999999996 L 8.968891479492187 3.4975124999999996 L 8.968891479492187 2.9650124999999994 L 9.012391479492187 2.9650124999999994 L 9.361891479492186 3.4090125 L 9.361891479492186 2.9657624999999994 L 9.414391479492187 2.9657624999999994 L 9.414391479492187 3.4975124999999996 L 9.365641479492187 3.4975124999999996 L 9.021391479492186 3.0617624999999995 M 9.763495971679687 3.5012624999999997 Q 9.707245971679686 3.5012624999999997 9.661495971679686 3.4787624999999998 Q 9.615745971679686 3.4562625 9.582745971679687 3.4176374999999997 Q 9.549745971679688 3.3790124999999995 9.531745971679687 3.3306374999999995 Q 9.513745971679686 3.2822624999999994 9.513745971679686 3.2312624999999997 Q 9.513745971679686 3.1780124999999995 9.532495971679687 3.1296374999999994 Q 9.551245971679688 3.0812624999999993 9.585370971679687 3.0433874999999997 Q 9.619495971679687 3.0055124999999996 9.665245971679687 2.9833874999999996 Q 9.710995971679687 2.9612624999999997 9.764245971679687 2.9612624999999997 Q 9.820495971679687 2.9612624999999997 9.866245971679687 2.9845124999999997 Q 9.911995971679687 3.0077624999999997 9.944620971679687 3.0467625 Q 9.977245971679686 3.0857624999999995 9.995245971679687 3.1337624999999996 Q 10.013245971679687 3.1817624999999996 10.013245971679687 3.2320124999999997 Q 10.013245971679687 3.2852624999999995 9.994495971679687 3.3336374999999996 Q 9.975745971679686 3.3820124999999996 9.941995971679686 3.4198874999999997 Q 9.908245971679687 3.4577624999999994 9.862495971679687 3.4795125 Q 9.816745971679687 3.5012624999999997 9.763495971679687 3.5012624999999997 M 9.566245971679686 3.2312624999999997 Q 9.566245971679686 3.2747624999999996 9.580495971679687 3.3148874999999998 Q 9.594745971679687 3.3550124999999995 9.620995971679687 3.3861374999999994 Q 9.647245971679686 3.4172624999999996 9.683620971679687 3.4356374999999995 Q 9.719995971679687 3.4540124999999997 9.763495971679687 3.4540124999999997 Q 9.809245971679687 3.4540124999999997 9.845620971679686 3.4348874999999994 Q 9.881995971679686 3.4157624999999996 9.907870971679687 3.3838874999999997 Q 9.933745971679686 3.3520124999999994 9.947245971679687 3.3122624999999997 Q 9.960745971679687 3.2725124999999995 9.960745971679687 3.2312624999999997 Q 9.960745971679687 3.1877624999999994 9.946495971679687 3.1480124999999997 Q 9.932245971679686 3.1082624999999995 9.905620971679687 3.0767624999999996 Q 9.878995971679688 3.0452624999999998 9.842995971679686 3.0272624999999995 Q 9.806995971679687 3.0092624999999997 9.763495971679687 3.0092624999999997 Q 9.718495971679687 3.0092624999999997 9.682120971679687 3.0280124999999996 Q 9.645745971679688 3.0467625 9.619870971679687 3.0786374999999997 Q 9.593995971679687 3.1105124999999996 9.580120971679687 3.1502624999999997 Q 9.566245971679686 3.1900124999999995 9.566245971679686 3.2312624999999997 M 10.090870239257812 2.9650124999999994 L 10.281370239257813 3.4322624999999998 L 10.471120239257813 2.9650124999999994 L 10.525870239257811 2.9650124999999994 L 10.305370239257812 3.4975124999999996 L 10.257370239257812 3.4975124999999996 L 10.036120239257812 2.9650124999999994 L 10.090870239257812 2.9650124999999994 M 10.724241577148437 2.9650124999999994 L 10.768491577148437 2.9650124999999994 L 10.989741577148436 3.4975124999999996 L 10.934241577148438 3.4975124999999996 L 10.865241577148437 3.3310124999999995 L 10.625991577148437 3.3310124999999995 L 10.557741577148438 3.4975124999999996 L 10.501491577148437 3.4975124999999996 L 10.724241577148437 2.9650124999999994 M 10.853241577148436 3.2897624999999997 L 10.745991577148438 3.0265124999999995 L 10.637241577148437 3.2897624999999997 L 10.853241577148436 3.2897624999999997 M 11.394390747070313 3.0115124999999994 L 11.204640747070313 3.0115124999999994 L 11.204640747070313 3.4975124999999996 L 11.152140747070312 3.4975124999999996 L 11.152140747070312 3.0115124999999994 L 10.962390747070312 3.0115124999999994 L 10.962390747070312 2.9650124999999994 L 11.394390747070313 2.9650124999999994 L 11.394390747070313 3.0115124999999994 M 11.475004760742188 3.4975124999999996 L 11.475004760742188 2.9650124999999994 L 11.527504760742186 2.9650124999999994 L 11.527504760742186 3.4975124999999996 L 11.475004760742188 3.4975124999999996 M 11.876619140625 3.5012624999999997 Q 11.820369140624999 3.5012624999999997 11.774619140625 3.4787624999999998 Q 11.728869140625 3.4562625 11.695869140625 3.4176374999999997 Q 11.662869140625 3.3790124999999995 11.644869140625 3.3306374999999995 Q 11.626869140624999 3.2822624999999994 11.626869140624999 3.2312624999999997 Q 11.626869140624999 3.1780124999999995 11.645619140625 3.1296374999999994 Q 11.664369140625 3.0812624999999993 11.698494140625 3.0433874999999997 Q 11.732619140625 3.0055124999999996 11.778369140625 2.9833874999999996 Q 11.824119140625 2.9612624999999997 11.877369140625 2.9612624999999997 Q 11.933619140625 2.9612624999999997 11.979369140625 2.9845124999999997 Q 12.025119140625 3.0077624999999997 12.057744140625 3.0467625 Q 12.090369140624999 3.0857624999999995 12.108369140625 3.1337624999999996 Q 12.126369140625 3.1817624999999996 12.126369140625 3.2320124999999997 Q 12.126369140625 3.2852624999999995 12.107619140625 3.3336374999999996 Q 12.088869140624999 3.3820124999999996 12.055119140625 3.4198874999999997 Q 12.021369140625 3.4577624999999994 11.975619140625 3.4795125 Q 11.929869140625 3.5012624999999997 11.876619140625 3.5012624999999997 M 11.679369140624999 3.2312624999999997 Q 11.679369140624999 3.2747624999999996 11.693619140625 3.3148874999999998 Q 11.707869140625 3.3550124999999995 11.734119140625 3.3861374999999994 Q 11.760369140624999 3.4172624999999996 11.796744140625 3.4356374999999995 Q 11.833119140625 3.4540124999999997 11.876619140625 3.4540124999999997 Q 11.922369140625 3.4540124999999997 11.958744140624999 3.4348874999999994 Q 11.995119140624999 3.4157624999999996 12.020994140625 3.3838874999999997 Q 12.046869140624999 3.3520124999999994 12.060369140625 3.3122624999999997 Q 12.073869140625 3.2725124999999995 12.073869140625 3.2312624999999997 Q 12.073869140625 3.1877624999999994 12.059619140625 3.1480124999999997 Q 12.045369140624999 3.1082624999999995 12.018744140625 3.0767624999999996 Q 11.992119140625 3.0452624999999998 11.956119140624999 3.0272624999999995 Q 11.920119140625 3.0092624999999997 11.876619140625 3.0092624999999997 Q 11.831619140625 3.0092624999999997 11.795244140625 3.0280124999999996 Q 11.758869140625 3.0467625 11.732994140625 3.0786374999999997 Q 11.707119140625 3.1105124999999996 11.693244140625 3.1502624999999997 Q 11.679369140624999 3.1900124999999995 11.679369140624999 3.2312624999999997 M 12.278976562499999 3.0617624999999995 L 12.278976562499999 3.4975124999999996 L 12.2264765625 3.4975124999999996 L 12.2264765625 2.9650124999999994 L 12.2699765625 2.9650124999999994 L 12.6194765625 3.4090125 L 12.6194765625 2.9657624999999994 L 12.6719765625 2.9657624999999994 L 12.6719765625 3.4975124999999996 L 12.6232265625 3.4975124999999996 L 12.278976562499999 3.0617624999999995" fill="#67a97b" fill-rule="nonzero"></path></g></g><defs><clipPath id="SvgjsClipPath1001"><path d=" M -7.736444113171414 -1.919465806585707 h 7.336444113171414 v 7.336444113171414 h -7.336444113171414 Z"></path></clipPath><linearGradient id="gradient-b5cc37c7-f0ee-40c7-9cc6-e3de9b06449c" x1="0" x2="1" y1="0" y2="1"><stop stop-color="#67a97b" offset="0"></stop><stop stop-color="#1c3423" offset="1"></stop></linearGradient><mask id="maskedMgText-ac4386c3-5b02-4a73-becc-ddea33f18d16"><path d=" M -0.517982999469738 2.3042778822980434 C -0.5308598753447011 2.340560589535472 -0.5434799474272838 2.376879983028955 -0.553678726610304 2.405311831470823 C -0.6103589922137678 2.429524760466478 -0.6700842170697179 2.3995887755263956 -0.7069539044040116 2.451022906514136 L -0.841959326682816 2.449188593711434 C -0.84856285277254 2.3648102047871813 -0.8551663788622648 2.2800649533023885 -0.8614764149035565 2.196860524571864 C -0.8569640054089129 2.1911007823713833 -0.8536622423640505 2.1838369036726855 -0.8494433229178382 2.1829197472713355 C -0.8218552583652121 2.1774901813753402 -0.7933500374112361 2.1759493586210708 -0.7663489529554752 2.168245244849726 C -0.7463204634002256 2.1602435404446014 -0.7272177666567572 2.150095617190667 -0.7093751973035776 2.137979083605157 C -0.6700842170697197 2.109840725211721 -0.6427529563094714 2.0774834473720736 -0.6586747914369182 2.0227108670834166 C -0.6623970047430472 2.0116063470568184 -0.6622547856155743 1.999569437267956 -0.6582712426203257 1.9885559626971212 C -0.6543106791007727 1.9775760705283962 -0.6467282530562706 1.968272718436251 -0.6367730965726661 1.962178544594279 C -0.6040856424285312 1.9479442772453182 -0.6031684860271804 1.9210165653016655 -0.6088548557155544 1.8913740704100146 C -0.6064702490720428 1.8568889897192329 -0.6043791324769625 1.8220737327239651 -0.6019578395773992 1.7875886520331838 C -0.6037921523801009 1.7615780964908812 -0.6052596026222616 1.735530854692525 -0.6067637391204759 1.7095202991502227 C -0.6067637391204759 1.6765026687016016 -0.5974821163388082 1.636881512163257 -0.6118631287119847 1.6120816030707374 C -0.6322002852100397 1.585053548421994 -0.6615962428276632 1.5662594115844974 -0.6946640086259155 1.5591433355847826 C -0.7441747063164046 1.5495146479251105 -0.7943021023917902 1.5433851057295391 -0.8446741096308124 1.5408002075577711 C -0.8627565684058291 1.5283548977256658 -0.8815877488407997 1.5170341360328143 -0.9010608851858493 1.5069021069638533 C -0.9775517290584874 1.4717933599201534 -0.9784688854598382 1.4712063798232888 -0.9727458295154108 1.3598269064432749 L -0.9223389136971791 1.411517841223393 C -0.8879217435436662 1.3700549369099382 -0.8725660492061413 1.3160103509414427 -0.8800396604668901 1.262645014156168 C -0.8644480016439315 1.20211269166703 -0.9100490179190821 1.1562548715995011 -0.9187436606038855 1.0919805509928526 L -0.8443439333263276 0.9497479362714052 C -0.806850579639117 0.9482437997731903 -0.7651749927617457 0.9588461277728029 -0.7402650249010643 0.9164735020304065 C -0.7015610247640707 0.8644157046897479 -0.7039823176636357 0.8032964021037454 -0.7030651612622849 0.7430942559190936 C -0.6663789052082629 0.7155428776225226 -0.6766877431594427 0.67339036941645 -0.6703777071181509 0.6362638782897787 C -0.6525782162651144 0.6265734760346126 -0.6378295355425614 0.6121169741721985 -0.6277849638394306 0.5945149189003007 C -0.6177293857958537 0.576851233743997 -0.6127405553172149 0.5567562753529463 -0.6133672652101989 0.5364405755667824 C -0.6217684178465701 0.45683139992955213 -0.5833579077580078 0.40026119309424874 -0.5455710640223641 0.34035253695802925 C -0.5260572782995165 0.30982029029640135 -0.5329512510384307 0.2694571918411451 -0.5614928991498092 0.2471327603247569 L -0.5974821163388064 0.18663712409167288 C -0.5935566869410263 0.17302652309563038 -0.5828076139171969 0.156370962847104 -0.5869898471073558 0.1462822424322476 C -0.5946346638979554 0.1287291000938286 -0.6061918640201736 0.11315636898451964 -0.6207778889331115 0.10075459866920489 C -0.6352940847620614 0.0883789925056486 -0.6524676107826402 0.07951604705935544 -0.6709646872150143 0.07485410189506475 C -0.6919859119339691 0.05761156154967406 -0.7120532939955195 0.03857139465763597 -0.7342484789082029 0.02349334341943253 C -0.7689608647998174 0.004873947819780539 -0.7958032400570882 -0.025628159338166014 -0.8098588526355464 -0.06242586825908927 C -0.8053464431409001 -0.06576431756000534 -0.7975689568574467 -0.06847910050800296 -0.7966518004560958 -0.0727347062102697 C -0.7687702458550385 -0.21555430102858128 -0.7687702458550385 -0.21555430102858128 -0.81437126213019 -0.33144618390324 C -0.8248635313616397 -0.35775022949397445 -0.8338516640948761 -0.38438445138919525 -0.8443439333263276 -0.4107251832359838 C -0.7929831748506944 -0.4618658241752919 -0.8023748564005242 -0.521150813958593 -0.821268278268346 -0.5816831364477311 C -0.8263676678598566 -0.5977150303433391 -0.8410421702814652 -0.6152510607371621 -0.8374469171881715 -0.6282746816363403 C -0.8200576318185648 -0.6906413169281794 -0.7981559369543128 -0.7520541095626139 -0.7774648885398427 -0.8190432131172599 L -0.9175697004101568 -0.890471353654443 C -1.0045716252818684 -0.9286684256149803 -1.0958006373546354 -0.9564016512072954 -1.1893414852583595 -0.973088802288103 C -1.228410132428694 -1.0064914678034578 -1.2817170852122324 -1.0178788929837839 -1.3310238061389965 -1.0033549635326717 L -1.5034492095929046 -1.0033549635326717 C -1.5655590410923654 -1.005152590079319 -1.6321445958304173 -1.0233122868260605 -1.6882378813370185 -1.0060697464806694 C -1.7875475764752577 -0.9758035852361004 -1.8889483882085782 -0.98126983738815 -1.988221397090765 -0.9655314335409741 C -2.0547544554211634 -0.9708851440413312 -2.12171480832469 -0.9660854734471009 -2.1868041011111923 -0.9512971661920131 C -2.255517458700376 -0.9379800552444026 -2.329587009673449 -0.9512971661920131 -2.4010151502106316 -0.9388972116457533 C -2.409709792895435 -0.9452439339430992 -2.418991415677103 -0.9576438884893591 -2.427392568313474 -0.9572403396727648 C -2.499713457959024 -0.9600634046934743 -2.5687620558480115 -0.9269876297253751 -2.6118877500091555 -0.8688631488386235 C -2.622484466534961 -0.8706834311751983 -2.633253130154776 -0.871298783382045 -2.643988224056427 -0.8706974616413246 C -2.6679810355157567 -0.9009636228858936 -2.691386866878224 -0.87612702753732 -2.715086188289122 -0.8706974616413246 C -2.80507757438964 -0.8706974616413246 -2.895068960490159 -0.8685696587901913 -2.9871514631857563 -0.866772032243544 C -3.032637567768095 -0.8718947073751917 -3.0783617301826487 -0.8594399914936156 -3.1149663792779725 -0.8319567752482762 C -3.132830984767696 -0.8174268041753618 -3.1574663913347267 -0.8144848367824294 -3.178250170971162 -0.8243994065011474 C -3.2382321996194903 -0.8470715127425337 -3.28383321589464 -0.8144207448544533 -3.337248404709298 -0.7923356187099314 C -3.3906635935239553 -0.7702504925654096 -3.459046774808654 -0.8135035884531027 -3.5109211408690424 -0.7620694574653624 L -3.6150367355503596 -0.7318032962207933 C -3.6780270371951174 -0.7566032053133129 -3.7407238487914425 -0.7768907049111877 -3.798468015820475 -0.7187796753216152 L -3.798468015820475 -0.6539183746181025 C -3.798468015820475 -0.6505799253171864 -3.807456148553711 -0.6475716523207565 -3.8122620480967875 -0.6445266930682726 C -3.9301716750544173 -0.7371228033486268 -3.9301716750544173 -0.7371228033486268 -4.030068350289522 -0.6941631975093657 C -4.104277871789478 -0.6971162123746096 -4.178422208637004 -0.6868684191262918 -4.249048612675985 -0.6638970362647968 C -4.325196310610454 -0.6459233444126241 -4.4023856947917475 -0.6326908785529738 -4.480172025816328 -0.6242758797264523 L -4.765481039148467 -0.5752630416382771 C -4.849712978619522 -0.5660159216395728 -4.933417733480794 -0.552473285759443 -5.016268285533776 -0.5346880424425262 C -5.059213567841917 -0.5209317556829989 -5.104051428054846 -0.5139993421768587 -5.14914590496144 -0.5141437390522747 C -5.284701621081056 -0.5210040689343771 -5.4040786982808475 -0.47048709434798747 -5.520594247508424 -0.4096612818104174 C -5.591068545388203 -0.4096612818104174 -5.663377156070682 -0.37334188831693466 -5.730586377161652 -0.4206671586266243 C -5.7887707792633325 -0.40856069412879675 -5.853558707454737 -0.4227949614777576 -5.903672133224533 -0.37741406273893124 C -5.913413202378799 -0.3769687827035499 -5.923027611733158 -0.37502610282113763 -5.932177354178509 -0.3716543205384497 L -6.0025415932901245 -0.3716543205384497 C -6.030921593442022 -0.375432916378862 -6.059677256000156 -0.375432916378862 -6.0880572561520525 -0.3716543205384495 C -6.17265576261263 -0.3498626844423599 -6.255126466222073 -0.3622626389886197 -6.3400184627310825 -0.3679856949330472 C -6.413773140737766 -0.3742686124226904 -6.486608637680517 -0.38867576899700806 -6.557201098570899 -0.4109453007723083 C -6.5895486527109135 -0.4220289861874492 -6.622511515128722 -0.4312282094040135 -6.655923813612273 -0.43849667906887896 C -6.669892429272438 -0.44209839259758327 -6.684650537197483 -0.4410947897918696 -6.698002949306239 -0.4356351510966656 C -6.711417096948319 -0.43017053209337464 -6.722739101745487 -0.42057060294072474 -6.730323540889834 -0.40823051782431025 C -6.76029621208597 -0.3961240533264829 -6.764221641483751 -0.36787563616488506 -6.769321031075259 -0.3410579829893943 C -6.795915066910266 -0.33536401102983937 -6.821428095744983 -0.3254560386668425 -6.844894718546548 -0.3117089781461757 C -6.906404505044904 -0.2600302173963661 -6.9411605135979295 -0.18324588328329566 -6.93939851414171 -0.10292749494273085 C -6.935704570802285 -0.041297959918795736 -6.944437702157696 0.02044527876396575 -6.965078893379527 0.07863278626862902 C -6.972763704039355 0.11164315043770648 -6.975886654647119 0.14555123470460662 -6.974360516161195 0.17940993164903024 C -7.054691043986369 0.22172334577797903 -7.144592139376342 0.24256210123174166 -7.235346541729514 0.2399055678821142 C -7.2573959718455825 0.23865539213802106 -7.279511899066492 0.24049529898107802 -7.301051626322269 0.24537182003416375 C -7.366279789586322 0.2632380267324727 -7.431067717777727 0.28418587893932007 -7.50605442515215 0.30726153399730055 C -7.526451983518187 0.32692536724225696 -7.550444794977517 0.3677571702303844 -7.584636385619867 0.37957014467978 C -7.6647591688418535 0.40671797415975686 -7.6920537433460465 0.4751011554444561 -7.736444113171414 0.5350098115806752 C -7.722356590846669 0.5719528714270765 -7.7100300088125175 0.6033929928653741 -7.698033603082852 0.635163290608158 L -7.698033603082852 0.6704554689321282 C -7.703535357806006 0.6985592779847566 -7.690169553463683 0.7269838885527644 -7.665015972634231 0.7406729630195285 C -7.661126409205212 0.7514390993478689 -7.655781773233358 0.76162229721572 -7.64913082376284 0.7709391242640976 C -7.558774808775608 0.8599417317979866 -7.49958422570065 0.9757493943359474 -7.480374045914334 1.1011154287503044 C -7.480374045914334 1.1105071103001343 -7.466580013638021 1.1183579690956955 -7.459389507451433 1.1267958079881208 L -7.456968214551867 1.1942985191275233 C -7.468377640184668 1.2293705799151693 -7.480080555865902 1.2644793269588694 -7.491489981498702 1.2995880740025694 C -7.513978656459819 1.369768881833915 -7.5406862508671475 1.4387757294715326 -7.557782046188322 1.511414516458498 C -7.574166957474091 1.5614605810469593 -7.564536694241663 1.6163805965096043 -7.532101666950506 1.6578660506261587 C -7.503287811923764 1.694025349058591 -7.48740299842952 1.738786945457818 -7.486977572004058 1.7850206141094018 C -7.486977572004058 1.7992548814583627 -7.468634443977046 1.8119483260530547 -7.459059331146946 1.8253754957688269 C -7.459978085386599 1.8363621985254164 -7.459978085386599 1.847406423460859 -7.459059331146946 1.8583931262174478 C -7.470261223384172 1.866125654931716 -7.478816185547651 1.8771139147165439 -7.483565750191033 1.8898699339118 C -7.488336154478637 1.9026552212219523 -7.489103871957099 1.9165892934560247 -7.485766925554275 1.929821266754631 L -7.513978656459819 1.9903169029877146 C -7.471425942046388 2.0708821742871804 -7.416790996223183 2.144458719307698 -7.351972149725254 2.208490067740988 C -7.310590052896315 2.287182086976869 -7.243967811902209 2.3525203090090843 -7.242170185355562 2.4506193576975415 C -7.242170185355562 2.4766299132398437 -7.202879205121704 2.5017599986368504 -7.182188156707235 2.527146887826234 C -7.171989377524216 2.5407941750783305 -7.164505381289196 2.5601645182748545 -7.152178799255044 2.567098220669064 C -7.102217892114749 2.5959942327634424 -7.063038717358893 2.640389569838865 -7.0405792083387055 2.6935557452872807 L -7.093994397153363 2.7307922951821153 L -7.144988293068455 2.7683223351253803 C -7.165400723291083 2.796752769468494 -7.200838534211677 2.8102171150771333 -7.2349796791689736 2.8025139257677303 C -7.280484214470659 2.801355087384155 -7.324887346466329 2.816603201040146 -7.360079812313192 2.8454735316069915 C -7.399896482605295 2.8763722665314457 -7.437302325328485 2.9102582807754365 -7.471972893277963 2.9468376570842576 C -7.483137080124713 2.9659524285769274 -7.490604281749338 2.98699749182233 -7.493984646910376 3.0088741160716097 C -7.530891020500723 3.0122125653725256 -7.57289678368258 3.0028208838226957 -7.594761792290777 3.0466976460633086 C -7.613691900414653 3.095710484151483 -7.606464707972011 3.127774271942699 -7.562698004499561 3.1861054190685953 C -7.5503714224654095 3.220003519662513 -7.538081526687312 3.25390162025643 -7.5254981408607815 3.2880932108987793 C -7.495488783408591 3.3428657911874353 -7.419107998304115 3.3249995844891265 -7.38660397544025 3.3788550083764326 C -7.354099952576386 3.4327104322637387 -7.2838824584889865 3.420603967765911 -7.221515823197147 3.451163619058912 C -7.22782585923844 3.5419621027926187 -7.157938541455525 3.5698069711376217 -7.085336440724614 3.595193860327006 C -7.055327083272423 3.60579618832662 -7.025354412076286 3.57160459768427 -7.030307056643579 3.5322769311943567 C -7.033023230804326 3.5210869444337307 -7.0369472310631425 3.5102252133097958 -7.042009972324813 3.499882967098655 C -6.984327554115536 3.4381424861076164 -6.946953529723186 3.3602063139677627 -6.934922790903119 3.2765737264978174 C -6.9322446942111755 3.2572033833012926 -6.913938252440218 3.2396673529074693 -6.903115806904282 3.2212141661122953 C -6.890825911126184 3.231816494111909 -6.879746661797869 3.251480327356865 -6.866429550850258 3.251480327356865 C -6.780620397939899 3.263586791854692 -6.759305683172511 3.3192398422886455 -6.765028739116939 3.3955105686249594 L -6.934225752038093 3.516575213603235 C -6.89790635854461 3.54926266774737 -6.8700248039435525 3.5743560668883214 -6.844234365937575 3.5985689958839764 C -6.815554759780826 3.5773996764604084 -6.785476825952621 3.5581934326507927 -6.754206293581001 3.541081632647323 C -6.717520037526979 3.5244260723987972 -6.682227859203008 3.5804092991372354 -6.639635115924288 3.5462177084948863 C -6.635966490318886 3.532607107498843 -6.631527453336349 3.515988233506371 -6.62734522014619 3.500249829659195 C -6.602383849111343 3.489207596028322 -6.576343859670856 3.4807857864123006 -6.549643729823769 3.47511974426219 C -6.5244402719146555 3.472404961314192 -6.497439187458895 3.505385905506758 -6.472859395902699 3.480255820109753 C -6.4428500384505085 3.4499896588651833 -6.464751733314761 3.4197601838766687 -6.472859395902699 3.3867792396841017 C -6.475060342928364 3.3711177840436317 -6.475060342928364 3.3552254837830437 -6.472859395902699 3.339564028142574 L -6.421241833634689 3.326540407243395 C -6.404439528361946 3.384027770480049 -6.404439528361946 3.384027770480049 -6.3678633310760855 3.3595580376920164 L -6.315658788711211 3.3253664470496673 C -6.316118274870567 3.3420440294512046 -6.319048357206824 3.3585612868403985 -6.324353431396014 3.3743792851378407 C -6.345422698307951 3.408008215257664 -6.346114926195192 3.450544912573548 -6.326151057942662 3.4848416021165045 C -6.320548155591535 3.5005732746277047 -6.317705953345824 3.5171548562882737 -6.31774990530629 3.5338544402046788 C -6.331602860471571 3.533120378058828 -6.345454647994768 3.53532066199753 -6.358398277014148 3.540311221270188 C -6.371363920897392 3.5453248607573498 -6.383136024430074 3.5529979728264225 -6.392956730217037 3.562836582487358 C -6.412949813685722 3.5828283054312413 -6.423602896512351 3.610313259123946 -6.422305735060256 3.6385570149828617 C -6.469374201577567 3.6567167117296036 -6.517396510752283 3.6733722719781294 -6.56387799717273 3.693916575368382 C -6.610359483593178 3.7144608787586355 -6.673936765334799 3.7078573526689107 -6.702185182496397 3.7672890874764278 C -6.675184098040636 3.7803127083756065 -6.642166467592015 3.7866594306729517 -6.626574808769056 3.8063232639179088 C -6.605357383750543 3.837414515149738 -6.587744860605397 3.8708180006954587 -6.574076776355748 3.9058897628485267 C -6.544911441400798 3.9012462605322558 -6.515195096781045 3.9012462605322558 -6.486029761826093 3.9058897628485267 C -6.442329924505733 3.9233933496078714 -6.392337656008074 3.911237846657512 -6.361553295034794 3.875623601603958 C -6.334845700627465 3.8511171825598707 -6.308431596268568 3.8738259750573105 -6.282054178165725 3.880759677451521 L -6.149139872482 3.91495126809387 C -6.105666659057983 3.8892708888560543 -6.062743739474776 3.8626366669608334 -6.018977036002326 3.837910130380421 C -5.995206322222683 3.820936979082913 -5.964296687794952 3.8176123154338457 -5.937460175050288 3.8291421151835108 C -5.8459646524515545 3.872725387375689 -5.787450074045387 3.82914211518351 -5.741849057770237 3.752577898798765 C -5.739170961078293 3.7480654893041194 -5.732567434988569 3.7459376864529856 -5.7277615354454925 3.7429294134565563 C -5.715454388348557 3.750146936285044 -5.705658461315348 3.760967273988393 -5.699696549564164 3.773929299822205 C -5.693688035484836 3.786918178907186 -5.691756625104553 3.8014229429551394 -5.694156924900007 3.815531514187467 C -5.696871707848005 3.847595301978683 -5.700466960941299 3.8796957760259536 -5.703475233937729 3.909925251014469 C -5.640154755988485 3.944740508009736 -5.58046621738859 3.9746764929498184 -5.519567032338911 3.9626067147080457 C -5.426273883193531 3.944263586681034 -5.336135752068797 3.9102554273189556 -5.244199994397415 3.882997539070816 C -5.240324550439011 3.9153194929088135 -5.244547917517986 3.948097864268023 -5.256489890175512 3.978381804811276 C -5.2683288468769485 4.00874702870065 -5.287618956729354 4.0356446835111965 -5.312583175682114 4.056596902718454 C -5.375903653631358 4.107957661194084 -5.462593276687014 4.098052372059498 -5.531893614373064 4.133454609151631 C -5.537286494013005 4.175827234894027 -5.542385883604514 4.2141643724704805 -5.547485273196023 4.254519254129907 C -5.52924047522436 4.269811922211331 -5.509106013532935 4.2826964981253175 -5.487576617059804 4.292856391706361 C -5.4665678543410605 4.301787257825298 -5.442934969944348 4.302325562414334 -5.421541356162562 4.2943605282045745 C -5.347765295237922 4.248062473064398 -5.279382113953224 4.288013805907229 -5.209164619865823 4.301037426806407 C -5.204926739212016 4.355785084443292 -5.177809281571022 4.40621076942797 -5.134471402539832 4.439931592226938 L -5.005482526253887 4.439931592226938 C -4.920003549648014 4.437803789375804 -4.837202669734084 4.4417292187735855 -4.76038164955696 4.489237920363545 C -4.709301695382529 4.51539564153273 -4.649452335998328 4.518374750269935 -4.5960272224349366 4.497418955463592 C -4.558827358796157 4.486413078647385 -4.519499692306245 4.481974041664849 -4.481125868473736 4.4747101629661525 C -4.464910543297858 4.469280597070156 -4.446310611478468 4.455963486122546 -4.432516579202155 4.460035660544542 C -4.374625667148907 4.476397730744637 -4.323008104880897 4.45790785769341 -4.266914819374295 4.446425059548499 C -4.189250015307929 4.430393165652892 -4.114556797981938 4.391395675467465 -4.031425741763522 4.406070177889075 C -4.01462343649078 4.43629965287759 -4.0057453625257065 4.470527929775993 -3.9714437131151943 4.488063960169816 L -3.8349341543381747 4.461723228323028 C -3.832604901422235 4.429337161458121 -3.820532125097934 4.398413461085072 -3.8003023286231765 4.3730158611844 C -3.7801773695241034 4.347718075939359 -3.7528147888240673 4.3291606662036 -3.7218671131796754 4.319820789906068 C -3.6600507717286463 4.2989463102113294 -3.616577558304629 4.223886230324798 -3.5384358329095607 4.255656528067582 C -3.4949626194855434 4.225427053079066 -3.487075074433928 4.160969301192149 -3.4256622817994935 4.149266385510915 C -3.4152740259645995 4.161011976295872 -3.403252732808489 4.171204747985278 -3.3899665546589293 4.179532546755484 C -3.3299478397545474 4.209798708000052 -3.2918675059704716 4.194647284249741 -3.26996581110622 4.13382147171217 C -3.2645729314662786 4.117496087768131 -3.266077067964494 4.095704451672041 -3.255878288781475 4.085138809928481 C -3.2385039988477495 4.071456083359723 -3.21931821214256 4.060245855349227 -3.1988678468735237 4.0518276894314305 C -3.158512965214098 4.0406383813349525 -3.1172776134093763 4.0309532097366905 -3.078867103320814 4.017342608740647 C -3.0602262433706193 4.009011525263002 -3.0424463341788073 3.9988743966636626 -3.0257820908106425 3.9870764474960785 C -2.966169185085748 3.992455216065043 -2.906329633155827 3.9795840188784917 -2.8542004712459788 3.950170073905733 C -2.7507085429175784 3.9562233061546452 -2.6556177672255505 3.9199039126611632 -2.559903325180605 3.8896377514165934 C -2.5407320251631487 3.8843379655414294 -2.5229517817042373 3.8749094279889222 -2.5078088415838935 3.8620130006079147 C -2.492629672178987 3.8490644544018844 -2.4804174937637136 3.8329984327981848 -2.472003055675166 3.81490784783455 C -2.4612172963952834 3.8131102212879027 -2.449991302042753 3.8118995748381206 -2.438728621434167 3.8109824184367698 C -2.365356109326121 3.823675863031462 -2.3001279460620685 3.7861825093442505 -2.230534118327586 3.77587367139307 C -2.1372223606525984 3.783313838639759 -2.043377678121438 3.7714755473503994 -1.954836904081605 3.7410951006538555 L -1.8516384658016376 3.7410951006538555 C -1.775634690141004 3.749065365787441 -1.7018746619230276 3.712378365902321 -1.6623740708189327 3.646958167619232 C -1.6387672580361992 3.61866122763551 -1.611883659913138 3.59326774191414 -1.582287973853 3.571311107635836 L -1.5135746162638162 3.696044378219515 C -1.502091091149481 3.6994900152146393 -1.4901616302940655 3.701220714198845 -1.478172379171684 3.701180454067078 C -1.4037726518941263 3.6893674796176823 -1.3791194878258226 3.607373697336941 -1.3134877757451742 3.585582061240851 C -1.2688594388077359 3.578891945513371 -1.2246059259947444 3.5699040986941313 -1.180903646365934 3.558654349297197 C -1.1421996462289412 3.549262667747369 -1.1038625086524867 3.538990516052242 -1.0654153123078718 3.52838818805263 C -1.0191843338128068 3.522335593398905 -0.9785027024478881 3.4948656378397676 -0.9556133479381801 3.45424526456745 C -0.9648949707198478 3.4049389364308427 -0.9768913764495144 3.3551923732215867 -0.9832014124908062 3.302951144600658 C -0.9922393233900841 3.2678702583250923 -0.9772500444831502 3.231007956122556 -0.946295038900459 3.2121893471230054 C -0.9268146369357719 3.2027976655731756 -0.8974289458365003 3.1985787461269632 -0.8896147732969935 3.1834273223766507 C -0.8729436484172606 3.14426120005987 -0.8595918293371456 3.1037639546882003 -0.8497001267102169 3.062362677398374 L -0.9697008702629253 2.962502688419325 L -0.9118099582096768 2.9020070521862404 C -0.901024198929794 2.8998792493351075 -0.8818006007574866 2.9020070521862404 -0.8802964642592714 2.8946698009754357 C -0.8554231826546435 2.8277907561889526 -0.8328978214374727 2.7603247313056034 -0.8095286763310598 2.6925285301177695 C -0.7902456866757683 2.702537489296775 -0.7701716997838037 2.7109425510455507 -0.7495099614266776 2.7176586155147744 C -0.7030284750062323 2.7291414136596837 -0.6775315270486866 2.706652738698568 -0.6757339005020384 2.6571262930256365 C -0.672695081759878 2.6293141462645337 -0.6839829730552918 2.6018612209230563 -0.7057065716981761 2.584230702246294 C -0.7057065716981761 2.500109117114418 -0.7057065716981761 2.500109117114418 -0.6406251534583394 2.479821617516544 L -0.5107191207710438 2.489800279163238 C -0.4952477362501444 2.45093124030858 -0.4819348107345416 2.4112374117933344 -0.47084116044032154 2.370900123292148 C -0.4692416140070659 2.36336556906385 -0.4692416140070659 2.3555791399987926 -0.47084116044032154 2.3480445857704932 C -0.47242415831723683 2.340522880154432 -0.47553318900035 2.3334058219641722 -0.4799760381977727 2.3271334198197 C -0.4844476226822989 2.3209073332537367 -0.49017065180417774 2.3156841320027644 -0.4967783434705142 2.311798564789118 C -0.5032382485181204 2.3078267400760515 -0.5104641248115902 2.305263929279925 -0.517982999469738 2.3042778822980434 Z" fill="#ffffff" transform="matrix(1,0,0,1,0,0)" fill-rule="nonzero"></path><path d=" M -0.4384838826006705 2.5996389297889824 C -0.4451952096956706 2.598321870917016 -0.4521171339764276 2.598535046121315 -0.45873469594248917 2.600262596141901 C -0.47217346357637346 2.603816074722568 -0.48328492906202136 2.6132554264700856 -0.4889641709310064 2.6259429753797177 C -0.4918209066252519 2.6322135351672085 -0.49322542764411725 2.6390480347679404 -0.4930730316090566 2.6459369849291603 C -0.49440571284488755 2.657135661000763 -0.49108520575781256 2.6683906659595014 -0.4838872512703878 2.677072591795972 C -0.4766892967829621 2.6857545176324438 -0.4662443954293529 2.6911028762264353 -0.45499269782498075 2.6918681775087956 C -0.44138892306487243 2.6946062522800194 -0.42727860335550094 2.691001031837529 -0.41665556024852624 2.6820729471423723 C -0.40599341863111427 2.6730920596281535 -0.3999210365280108 2.659802833163046 -0.40011005876816164 2.6458636124170516 C -0.39933006171604646 2.6346606174409466 -0.4028899277881859 2.6235869381095327 -0.4100520341588023 2.6149370985635105 C -0.4171871716029383 2.6063440123349 -0.4273814863932115 2.600858813280005 -0.4384838826006696 2.5996389297889824 Z" fill="#ffffff" transform="matrix(1,0,0,1,0,0)" fill-rule="nonzero"></path><path d=" M -0.4658151433609179 2.12998147978538 C -0.46100924381784036 2.12998147978538 -0.4508104646348219 2.113362605792908 -0.45260809118146916 2.108813510042209 C -0.45558958204387157 2.0980404205504124 -0.46262270220609736 2.088838207254044 -0.47223523817037183 2.083133130804393 C -0.48176916802402836 2.0774914353758662 -0.49312852198229784 2.075793455467851 -0.5038954771449928 2.0784006037734235 C -0.5071972401898552 2.08265620947569 -0.51380076627958 2.0877922853232533 -0.5129202961342836 2.091130734624169 C -0.5113567788199935 2.1023533383815325 -0.5056349602931913 2.112579288654831 -0.4968884022386746 2.1197827006023617 C -0.4882078746240115 2.127016233706752 -0.47709386980150903 2.130664041665023 -0.4658151433609179 2.1299814797853793 Z" fill="#ffffff" transform="matrix(1,0,0,1,0,0)" fill-rule="nonzero"></path><path d=" M -5.877491468658486 3.3117079371796865 C -5.800206440418254 2.9225226163985196 -5.725681591758031 2.5429979241473815 -5.653916922677816 2.1731338604262724 C -5.626315126877733 2.018563803945809 -5.596643196392644 1.8564032536203225 -5.564901131222549 1.6866522094498135 C -5.533159066052454 1.5169011652793043 -5.503487135567364 1.3499103006888038 -5.475885339767282 1.185679615678311 C -5.448283543967199 1.0214489306678187 -5.422751882852123 0.8627386048173427 -5.3992903564220525 0.7095486381268832 C -5.375828829991982 0.5563586714364237 -5.357197617826926 0.4162795577510039 -5.343396719926885 0.28931129707062286 C -5.257831152946628 0.2837909379106063 -5.17502576554638 0.27827057875059014 -5.09498055772614 0.27275021959057355 C -5.023215888645924 0.2672298604305565 -4.950071129775705 0.2623995461655424 -4.875546281115481 0.25825927679552985 C -4.801021432455258 0.25411900742551774 -4.73477712253506 0.24928869316050317 -4.676813351354886 0.2437683340004866 C -4.640931016814778 0.45630216166112403 -4.609188951644683 0.6591753607917323 -4.5815871558446 0.8523879313923115 C -4.567786257944559 0.9351933187925598 -4.553295315149516 1.0214489306678187 -4.5381143274594695 1.1111547670180877 C -4.522933339769424 1.2008606033683566 -4.508442396974381 1.2871162152436155 -4.494641499074339 1.3699216026438636 C -4.4808406011742985 1.452726990044112 -4.467039703274256 1.53208215296935 -4.453238805374215 1.6079870914195775 C -4.439437907474174 1.683892029869805 -4.425637009574132 1.7508263846850058 -4.411836111674091 1.8087901558651798 C -4.400795393354057 1.7508263846850058 -4.388374585244021 1.683892029869805 -4.374573687343979 1.6079870914195775 C -4.360772789443938 1.53208215296935 -4.345591801753892 1.4520369451491097 -4.329030724273842 1.3678514679588574 C -4.312469646793793 1.283665990768605 -4.2952185244187415 1.1974103788933461 -4.277277357148687 1.1090846323330816 C -4.259336189878634 1.0207588857728163 -4.242085067503582 0.9351933187925598 -4.225523990023532 0.8523879313923115 C -4.184121296323408 0.6591753607917323 -4.14133851283328 0.4576822514511276 -4.097175639553147 0.24790860337049914 L -3.5920627764116326 0.18580456282031266 C -3.6859088821319137 0.5998314998215544 -3.768714269532162 0.9917770001827293 -3.8404789386123777 1.3616410639038388 C -3.8736010935724767 1.5217314795443189 -3.9060332036375742 1.6832019849748032 -3.9377752688076693 1.8460525801952914 C -3.9695173339777643 2.00890317541578 -3.9991892644628537 2.1662334114762514 -4.026791060262936 2.318043288376707 C -4.05439285606302 2.4698531652771623 -4.077854382493089 2.609932278962582 -4.097175639553147 2.738280629432967 C -4.116496896613206 2.8666289799033517 -4.131677884303251 2.974966028418677 -4.142718602623284 3.063291774978942 C -4.150999141363309 3.063291774978942 -4.183431251428406 3.0695021790339605 -4.240014932818576 3.0819229871439977 C -4.296598614208746 3.094343795254035 -4.36146283433894 3.108834738049078 -4.43460759320916 3.125395815529128 C -4.507752352079379 3.1419568930091777 -4.580897110949598 3.1592080153842295 -4.654041869819817 3.1771491826542833 C -4.727186628690037 3.195090349924337 -4.7817001753951995 3.2095812927193803 -4.817582509935308 3.2206220110394135 C -4.836903766995365 2.997047465058743 -4.857605113845428 2.7845136373981054 -4.879686550485494 2.5830205280575016 C -4.887967089225519 2.4974549610772447 -4.897627717755547 2.4091292145169803 -4.908668436075581 2.318043288376707 C -4.919709154395614 2.226957362236434 -4.930059827820645 2.140011705466173 -4.939720456350674 2.0572063180659246 C -4.949381084880703 1.9744009306656765 -4.959041713410732 1.8964258575304427 -4.9687023419407605 1.8232810986602233 C -4.97836297047079 1.7501363397900038 -4.987333554105817 1.6887223441348196 -4.995614092845842 1.6390391116946708 C -5.003894631585866 1.6887223441348196 -5.014935349905899 1.7494462948950018 -5.028736247805941 1.821210963975217 C -5.042537145705983 1.8929756330554321 -5.056338043606024 1.9695706164006619 -5.070138941506065 2.050995914010906 C -5.083939839406106 2.1324212116211503 -5.097740737306148 2.2166066888114027 -5.111541635206189 2.3035523455816636 C -5.125342533106231 2.390498002351924 -5.140523520796276 2.475373524437179 -5.157084598276326 2.5581789118374267 C -5.192966932816433 2.754151662018015 -5.231609446936549 2.958404950938627 -5.2730121406366735 3.1709387785992647 L -5.877491468658486 3.3117079371796865" fill="NA" transform="matrix(1,0,0,1,0,0)" fill-rule="nonzero"></path><path d=" M -2.7308746177536305 3.245463627259488 C -2.813680005153879 3.2592645251595296 -2.888204853814102 3.271685333269567 -2.954449163734301 3.2827260515896 C -2.943408445414268 3.1916401254493265 -2.9323677270942348 3.1019342890990576 -2.9213270087742016 3.0136085425387926 C -2.9130464700341765 2.936323514298561 -2.9054559761891543 2.859038486058329 -2.8985555272391332 2.7817534578180974 C -2.891655078289112 2.7044684295778656 -2.885444674234094 2.638224119657667 -2.8799243150740774 2.5830205280575016 L -3.2401277502651578 2.5830205280575016 L -3.4057385250656544 3.1792193173392893 C -3.4664624758258364 3.1874998560793144 -3.5382271449060516 3.196470439714341 -3.6210325323063 3.20613106824437 C -3.7038379197065483 3.215791696774399 -3.78112294794678 3.224762280409426 -3.8528876170269952 3.2330428191494507 C -3.94121336358726 3.244083537469484 -4.028159020357521 3.255124255789517 -4.113724587337777 3.26616497410955 C -4.003317404137446 2.8990610899684492 -3.8942903107271194 2.537477564987365 -3.7866433071067966 2.181414399166297 C -3.742480433826664 2.03236470184585 -3.696247425861525 1.8764145555753824 -3.6479442832113804 1.7135639603548942 C -3.5996411405612356 1.5507133651344058 -3.551337997911091 1.3885528148089195 -3.503034855260946 1.227082309378435 C -3.4547317126108013 1.065611803947951 -3.4084987046456625 0.9103517025724854 -3.36433583136553 0.7613020052520385 C -3.3201729580853976 0.6122523079315916 -3.2815304439652815 0.47562341872118186 -3.2484082890051824 0.35141533762080934 C -3.0607160775646194 0.33761443972076766 -2.8695736416490463 0.3210533622407179 -2.6749809812584626 0.3017321051806605 C -2.4803883208678794 0.2824108481206027 -2.2906259747423103 0.2561891421105238 -2.1056939428817554 0.22306698715042428 C -2.1139744816217805 0.31139273371068965 -2.1229450652568076 0.42110987201601846 -2.1326056937868363 0.5522184020664116 C -2.142266322316865 0.6833269321168043 -2.151236905951892 0.826166225382233 -2.159517444691917 0.9807362818626966 C -2.167797983431942 1.13530633834316 -2.1760785221719665 1.2967768437736442 -2.1843590609119916 1.4651477981541492 C -2.1926395996520163 1.6335187525346542 -2.200920138392041 1.7991295273351509 -2.209200677132066 1.961980122555639 C -2.2230015750321073 2.3428849045967812 -2.238182562722153 2.747251213067994 -2.2547436402022027 3.1750790479692768 C -2.337549027602451 3.1888799458693184 -2.4203544150026994 3.1999206641893516 -2.5031598024029478 3.2082012029293763 C -2.5721642919031544 3.2192419212494094 -2.648069230353382 3.2316627293594467 -2.7308746177536305 3.245463627259488 M -3.1407612853848597 2.16899359105626 C -3.1297205670648265 2.16899359105626 -3.1097092651097666 2.1683035461612574 -3.0807273795196797 2.1669234563712534 C -3.0517454939295927 2.1655433665812494 -3.0213835185495013 2.1641632767912453 -2.9896414533794067 2.1627831870012413 C -2.957899388209311 2.1614030972112372 -2.928227457724222 2.160023007421233 -2.9006256619241393 2.158642917631229 C -2.873023866124057 2.1572628278412247 -2.8537026090639985 2.1551926931562186 -2.8426618907439654 2.15243251357621 C -2.8426618907439654 2.135871436096161 -2.8405917560589593 2.107579595401076 -2.836451486688947 2.0675569914909557 C -2.8323112173189346 2.0275343875808356 -2.828170947948922 1.981991424510699 -2.82403067857891 1.930928102280546 C -2.819890409208897 1.879864780050393 -2.815060094943883 1.8239711435552253 -2.8095397357838663 1.763247192795043 C -2.8040193766238497 1.702523242034861 -2.798499017463833 1.643179381064683 -2.7929786583038165 1.5852156098845092 C -2.7819379399837834 1.444446451304087 -2.768137042083742 1.2926365744036319 -2.7515759646036924 1.1297859791831435 L -2.726734348383618 0.7695825439920632 L -2.7888383889338044 0.7737228133620757 L -2.88406458444409 1.1297859791831435 L -3.1407612853848597 2.16899359105626" fill="NA" transform="matrix(1,0,0,1,0,0)" fill-rule="nonzero"></path></mask></defs></svg>